PathFileType	4	(X/Y/Z)	C:\Users\WrightLab\Desktop\Jo\P4V131.trc
DataRate	CameraRate	NumFrames	NumMarkers	Units	OrigDataRate	OrigDataStartFrame	OrigNumFrames
100.00	100.00	       8	19	mm	100.00	373	       497
Frame#	Time	Headset_Front			Headset_Back			Headset_Left			Headset_Right			Left_Shoulder			Right_Shoulder			Sternum			C7			Left Elbow			Right Elbow			Left Wrist			Right Wrist			Left ASIS			Right ASIS			S2			Left Knee			Right Knee			Left Ankle			Right Ankle			
		X1	Y1	Z1	X2	Y2	Z2	X3	Y3	Z3	X4	Y4	Z4	X5	Y5	Z5	X6	Y6	Z6	X7	Y7	Z7	X8	Y8	Z8	X9	Y9	Z9	X10	Y10	Z10	X11	Y11	Z11	X12	Y12	Z12	X13	Y13	Z13	X14	Y14	Z14	X15	Y15	Z15	X16	Y16	Z16	X17	Y17	Z17	X18	Y18	Z18	X19	Y19	Z19	

373	3.720	-147.42511	1722.15417	1887.55505	-82.25816	1709.52930	2020.58630							135.26474	1538.72278	1902.15613	-144.54025	1520.88770	1771.88672	-40.20802	1481.39832	1948.29578				289.52286	1199.17419	1949.92029	-275.52771	1166.74719	1765.46204	260.25858	909.26361	2066.93018	-337.04587	940.01990	1963.60999	77.05484	1059.02295	2056.46143	-209.75597	1030.41174	1889.97095				51.16109	601.35864	2181.63477	-147.03075	560.48621	1788.61438	43.81813	99.18791	2181.40283	46.72464	166.12352	1506.74121	
374	3.730	-148.56363	1724.20837	1896.67310	-83.77776	1712.25317	2029.88135							133.89786	1540.71106	1913.79626	-145.00021	1523.71045	1781.88953	-42.01338	1483.62585	1958.73206				287.34317	1201.28259	1963.91199	-275.88129	1169.42102	1773.63770	257.29602	911.21466	2079.74756	-338.47629	938.63208	1968.43274	75.36014	1061.40637	2065.96973	-210.87068	1031.65454	1899.50684				50.29240	600.87622	2186.29858	-153.92461	559.56543	1803.76831	43.55261	99.11572	2181.61816	44.64777	174.61386	1513.63696	
375	3.740	-149.17841	1726.66577	1905.07397	-85.98209	1715.25354	2039.35095							132.32898	1542.18286	1925.23193	-145.74011	1526.13208	1791.34973	-43.64449	1486.18933	1968.98328				284.40918	1202.56421	1976.76465	-276.05319	1172.13220	1782.14978	254.31528	912.71216	2092.62891	-339.95135	938.62524	1973.43677	73.55923	1063.92395	2075.78296	-211.70322	1032.34326	1907.99805				51.10735	601.95709	2193.28931	-160.95932	559.00275	1817.77271	43.11956	100.00159	2181.74805	41.82138	184.83488	1521.70447	
376	3.750	-149.86472	1729.85229	1914.08862	-87.46869	1717.78760	2048.60791							130.56444	1544.58325	1936.13843	-146.82388	1529.12085	1800.61169	-45.37860	1488.55542	1979.08325				282.28778	1204.55151	1989.49426	-276.54071	1175.09021	1790.41748	251.17943	915.19849	2105.71802	-341.56412	937.55640	1977.71265	71.63620	1067.75024	2086.29028	-212.53156	1033.94788	1917.09985				52.14604	601.77893	2199.00488	-167.84796	558.31030	1833.66882	43.11956	100.00159	2181.74805	39.09161	195.71266	1529.51892	
377	3.760	-150.63965	1733.58618	1923.69763	-89.36058	1720.47388	2058.33691							128.60855	1546.90747	1947.43396	-147.80733	1531.74390	1808.97852	-48.12018	1490.86108	1988.31445				280.37149	1207.75562	2003.80811	-277.37546	1178.28210	1797.78601	247.49905	917.37817	2118.97046	-343.03595	937.23102	1981.01135	70.08356	1070.24438	2096.19873	-213.45528	1035.44214	1925.64368				51.14959	600.82355	2201.51440	-174.44392	558.83185	1849.09558	42.91681	99.92220	2181.94092	36.71194	206.24905	1539.85278	
378	3.770	-151.40727	1736.62830	1932.31726	-91.09779	1723.23840	2067.78198							126.62395	1549.40918	1958.55054	-148.38591	1534.67334	1817.95593	-49.91452	1493.00928	1997.00867				277.83710	1210.20752	2017.64514	-278.06061	1181.45178	1806.30750	243.38951	920.14868	2132.44873	-344.55286	936.97144	1984.42236	68.99924	1072.72437	2105.73486	-214.74159	1037.50525	1934.31433				50.32731	601.98907	2206.21631	-180.89749	559.62244	1866.39050	42.31528	100.97939	2181.95386	33.60449	217.74492	1549.46399	
379	3.780	-152.67958	1739.19470	1941.77502	-92.97569	1726.08655	2076.54077							124.98759	1551.89746	1968.78992	-149.33549	1537.96326	1826.82886	-52.21132	1495.63257	2006.95605				275.36093	1212.57544	2031.80420	-279.50189	1184.48499	1813.72339	239.33003	923.50452	2145.90894	-345.75320	936.91962	1987.71631	67.58514	1075.01270	2114.91357	-215.70898	1039.40662	1941.44006				50.63451	601.67633	2210.82422	-187.13498	561.19324	1878.49902	41.95461	100.95201	2182.16382	31.23235	228.79021	1561.98523	
380	3.790	-154.18138	1742.33984	1950.35474	-94.76375	1728.52515	2085.27637							122.71390	1553.77417	1978.56128	-150.64642	1540.84802	1834.33472	-55.21279	1497.81787	2014.84607				272.87726	1215.40588	2046.12927				235.14856	926.00183	2158.70776	-347.05225	937.85742	1992.69873	66.24554	1077.10327	2123.35303	-216.91806	1043.09180	1951.63403				50.53133	600.50879	2212.05762	-193.13992	562.98090	1893.19373	41.71862	102.18711	2183.56812	27.96039	240.24118	1573.50391	
